<?xml version="1.0" encoding="utf-8"?>
<!-- Generator: Adobe Illustrator 25.4.1, SVG Export Plug-In . SVG Version: 6.00 Build 0)  -->
<svg version="1.1" id="Layer_1" focusable="false" xmlns="http://www.w3.org/2000/svg" xmlns:xlink="http://www.w3.org/1999/xlink"
	 x="0px" y="0px" viewBox="0 0 183.2 216" style="enable-background:new 0 0 183.2 216;" xml:space="preserve">
<style type="text/css">
	.st0{fill:#FFFFFF;}
	.st1{display:none;}
	.st2{display:inline;fill:url(#SVGID_1_);}
	.st3{display:inline;fill:url(#SVGID_00000153698787957758359130000005876568460082063259_);}
	.st4{fill:url(#SVGID_00000150814520856835946410000014013637281637847737_);}
	.st5{fill:url(#SVGID_00000162325591866977455530000011689685432538769037_);}
	.st6{fill:url(#SVGID_00000027578609734754027510000013962738695564340131_);}
	.st7{fill:url(#SVGID_00000163766535772973319050000001847169837361152899_);}
	.st8{fill:none;}
</style>
<path class="st0" d="M308.6,37l32.8,108.6c0.8,3.6,3.2,7.3,8.4,6.8l0,0h12.1c7.2,0.8,8.3-6.4,8.4-7.1L391.9,55l21.9,90.4
	c0.1,0.7,1.1,7.8,8.4,7.1h12.3c5.2,0.5,7.6-3.2,8.4-6.8c37-119.1,34.5-110.8,34.8-112.1c0.6-6.2-2.9-5.7-3.5-5.7h-13
	c-6.6-0.7-8,5.4-8.4,6.8l-24.3,94.1l-22-94.1c-1-7.2-6.9-7-8.4-6.8h-11.3c-6.5-0.5-8.1,4.6-8.4,6.8l-21.9,92.9l-23.7-92.9
	c-0.6-2.9-2.5-7.4-8.3-6.8c-16.1,0-14.5,0-14.7,0c-1.7,0.3-2.8,1.8-2.5,3.5C307.5,33.3,308,35.2,308.6,37z"/>
<path class="st0" d="M492.3,148c15.5,7.9,34,8.1,37.8,8.1l0,0c0.6,0,33.1,2,45.7-22.7c2.3-4.7,8.4-21.9-2.9-36.6
	c-9.5-11.1-17.6-12.3-41.6-19.5c-2-0.5-19.9-5.2-19.6-17.7c-1-15.9,20.8-16.7,25.3-16.5c18.3-0.3,27.3,6.5,32.4,7.1
	c2.1,0,3.2-1.5,3.2-4.4v-6.7c0.1-1.6-0.4-3.3-1.3-4.6c-6-7.6-28.3-10.3-36.6-10.3c-29.3-0.2-46.3,18.3-45.9,36.9
	c0.1,25.6,25.8,33.7,28.9,34.5c24.8,7.8,28.1,8.1,35,13.9c5.9,6.1,5.2,17.9-3.5,23.1c-2.6,1.4-13.2,7.9-37.4,3
	c-8.1-1.6-12.4-3.7-19-6.3c-1.7-0.7-5.8-1.7-5.8,3.9v7.1C487.2,143.6,489.2,146.7,492.3,148z"/>
<path class="st0" d="M231.6,155.5c16,0.3,31.3-6.9,41.3-19.4c8.1,18.1,13.2,16.9,13.5,16.9c1.3-0.1,2.6-0.5,3.7-1.3l8.4-5.9
	c1.5-0.9,2.5-2.4,2.7-4.1c-0.2-4.2-7.7-10.8-7.2-25.8V70.2c1-12.6-3.2-25.1-11.7-34.5c-10.3-8.5-23.5-12.6-36.7-11.4
	c-19.8-0.1-40.1,7.8-43.5,12c-0.9,1.8-2.9,16,1.9,16c1.6,0,2.2,0.4,7.1-1.9c17.4-7,28.6-6.7,30.2-6.7c19.9-2,31.3,11.5,29.6,29V83
	c-16.7-3.9-26.3-4.1-31-4.1c-24.3-1.3-47.8,14.4-46.8,39.6C191.8,149.4,220.8,156,231.6,155.5z M244.8,95.8
	c10.5,0,19.7,1.7,26.1,3.2c0,7.2,0.3,11.4-1.4,18.1c-2.1,6.9-11.1,19.8-32.5,20.1c-12.4,0.6-20.6-9-19.8-20.1
	C216.6,99.6,234.9,95.1,244.8,95.8z"/>
<g>
	<path class="st0" d="M221.4,175.2c2.1,1.8,3.1,4.2,3.1,7.2c0,3.1-1,5.5-3.1,7.2s-4.9,2.6-8.6,2.6h-7.7v9.1h-3v-28.7h10.7
		C216.4,172.6,219.3,173.4,221.4,175.2z M219.2,187.7c1.5-1.2,2.3-3,2.3-5.3s-0.8-4.1-2.3-5.4c-1.5-1.2-3.7-1.9-6.5-1.9h-7.6v14.4
		h7.6C215.5,189.5,217.7,188.9,219.2,187.7z"/>
	<path class="st0" d="M279.2,199.6c-2.3-1.3-4.1-3-5.4-5.2s-1.9-4.7-1.9-7.5s0.6-5.2,1.9-7.5c1.3-2.2,3.1-4,5.4-5.2
		c2.3-1.3,4.9-1.9,7.7-1.9s5.4,0.6,7.7,1.9c2.3,1.3,4.1,3,5.4,5.2s2,4.7,2,7.5s-0.7,5.3-2,7.5s-3.1,4-5.4,5.2s-4.8,1.9-7.7,1.9
		S281.5,200.9,279.2,199.6z M293.1,197.3c1.8-1,3.3-2.4,4.3-4.3c1-1.8,1.6-3.8,1.6-6.1s-0.5-4.3-1.6-6.1c-1-1.8-2.5-3.2-4.3-4.3
		c-1.8-1-3.9-1.5-6.2-1.5s-4.3,0.5-6.2,1.5c-1.8,1-3.3,2.4-4.3,4.3c-1.1,1.8-1.6,3.8-1.6,6.1s0.5,4.3,1.6,6.1s2.5,3.2,4.3,4.3
		c1.8,1,3.9,1.5,6.2,1.5S291.3,198.3,293.1,197.3z"/>
	<path class="st0" d="M371.4,201.3l-6.6-9.2c-0.7,0.1-1.5,0.1-2.3,0.1h-7.7v9.1h-3v-28.7h10.7c3.7,0,6.5,0.9,8.6,2.6
		c2.1,1.8,3.1,4.2,3.1,7.2c0,2.2-0.6,4.1-1.7,5.7c-1.1,1.5-2.8,2.7-4.9,3.3l7,9.8L371.4,201.3L371.4,201.3z M369,187.7
		c1.5-1.3,2.3-3,2.3-5.3s-0.8-4.1-2.3-5.4c-1.5-1.2-3.7-1.9-6.5-1.9h-7.7v14.4h7.6C365.3,189.6,367.5,188.9,369,187.7z"/>
	<path class="st0" d="M430,175.2h-10.1v-2.6h23.2v2.6H433v26.1h-3V175.2z"/>
	<path class="st0" d="M508.9,193.6h-16l-3.4,7.7h-3.2l13.1-28.7h3l13.1,28.7h-3.2L508.9,193.6z M507.8,191.1l-6.9-15.4l-6.9,15.4
		H507.8z"/>
	<path class="st0" d="M563.3,172.6h3v26.1h16.1v2.6h-19.1V172.6z"/>
</g>
<g class="st1">
	
		<linearGradient id="SVGID_1_" gradientUnits="userSpaceOnUse" x1="80.0997" y1="441.112" x2="187.0487" y2="255.871" gradientTransform="matrix(0.8534 -0.6418 -0.4359 -0.5796 127.1469 390.5687)">
		<stop  offset="0" style="stop-color:#FF9900"/>
		<stop  offset="0.2954" style="stop-color:#FF9C02"/>
		<stop  offset="0.4982" style="stop-color:#FFA508"/>
		<stop  offset="0.6731" style="stop-color:#FFB412"/>
		<stop  offset="0.8324" style="stop-color:#FFCA21"/>
		<stop  offset="0.9797" style="stop-color:#FFE634"/>
		<stop  offset="1" style="stop-color:#FFEA37"/>
	</linearGradient>
	<path class="st2" d="M142.2,43.8c24.1,46,19.9,110-9,145l-0.1,0.1c-0.3,0.4-0.6,0.8-1,1.2l-0.1,0.1c-0.4,0.5-0.8,0.9-1.2,1.4
		s-0.8,0.9-1.2,1.3l-0.1,0.1c-0.3,0.3-0.7,0.7-1,1l-0.1,0.1c-0.3,0.3-0.7,0.7-1,1c-0.2,0.1-0.3,0.3-0.5,0.4
		c-0.3,0.2-0.5,0.5-0.8,0.7c-0.5,0.4-0.9,0.8-1.4,1.2c-0.1,0.1-0.2,0.1-0.2,0.2c-0.4,0.3-0.7,0.6-1.1,0.8c-0.2,0.1-0.3,0.3-0.5,0.4
		c-0.3,0.2-0.6,0.4-0.8,0.6c-0.2,0.1-0.4,0.3-0.6,0.4c-0.4,0.3-0.9,0.6-1.3,0.9c-0.8,0.5-1.7,1-2.5,1.4s-1.7,0.9-2.5,1.2
		c-0.6,0.3-1.3,0.5-1.9,0.8c-0.6,0.2-1.3,0.5-1.9,0.7c0,0,0,0-0.1,0c-0.4,0.1-0.9,0.3-1.3,0.4c-0.6,0.2-1.1,0.3-1.6,0.4
		c-0.5,0.1-1,0.2-1.5,0.3c-0.6,0.1-1.2,0.2-1.8,0.3c-0.6,0.1-1.1,0.2-1.7,0.2c-0.9,0.1-1.7,0.1-2.6,0.2c-1.8,0.1-3.6,0-5.5-0.2
		c-0.9-0.1-1.8-0.2-2.6-0.4c-0.4-0.1-0.9-0.2-1.3-0.3c-0.5-0.1-0.9-0.2-1.4-0.3c-0.4-0.1-0.9-0.2-1.3-0.4c-0.4-0.1-0.8-0.2-1.2-0.3
		c-0.5-0.2-1-0.3-1.5-0.5c0,0,0,0-0.1,0c-0.9-0.3-1.7-0.6-2.6-1c0,0,0,0-0.1,0c-0.6-0.2-1.1-0.5-1.7-0.8c-0.7-0.3-1.5-0.7-2.2-1.1
		c-0.3-0.2-0.7-0.4-1-0.6c-1.6-0.9-3.2-1.9-4.7-2.9c-0.7-0.5-1.3-1-2-1.5s-1.4-1.1-2.1-1.7c-0.5-0.4-1.1-0.9-1.6-1.4l0,0
		c-0.6-0.5-1.1-1-1.7-1.5c-0.1-0.1-0.2-0.2-0.3-0.3c-0.6-0.5-1.1-1.1-1.7-1.7c-0.4-0.4-0.8-0.8-1.2-1.2c-0.4-0.5-0.9-1-1.3-1.5
		c-0.3-0.4-0.7-0.7-1-1.1c-0.4-0.5-0.8-0.9-1.1-1.4c-0.3-0.3-0.5-0.7-0.8-1c-0.4-0.5-0.9-1.1-1.3-1.7c0-0.1-0.1-0.1-0.1-0.2
		c-0.5-0.6-0.9-1.3-1.4-1.9c-0.2-0.2-0.3-0.4-0.4-0.6c-0.5-0.7-0.9-1.4-1.4-2.1c-0.1-0.2-0.3-0.4-0.4-0.7c-0.4-0.6-0.7-1.1-1.1-1.7
		c-0.2-0.3-0.4-0.6-0.5-0.9c-0.4-0.7-0.9-1.5-1.3-2.2l-0.1-0.2c-0.5-0.9-1-1.8-1.5-2.8c-2.4-4.7-4.6-9.5-6.4-14.5
		c21.3,28.9,52.4,34.1,74,10.2s26.4-68.8,12.9-106.4c-1.8-5-3.9-9.9-6.4-14.5C103,4.9,68-6,43.6,17.9
		C74.5-13.3,118.1-2.3,142.2,43.8z"/>
	
		<linearGradient id="SVGID_00000016077301479530349380000016654982179372540088_" gradientUnits="userSpaceOnUse" x1="387.7245" y1="-58.7341" x2="486.8283" y2="-230.3868" gradientTransform="matrix(-0.7586 0.8393 0.5496 0.4968 490.8624 -175.2331)">
		<stop  offset="0" style="stop-color:#FF9900"/>
		<stop  offset="0.2954" style="stop-color:#FF9C02"/>
		<stop  offset="0.4982" style="stop-color:#FFA508"/>
		<stop  offset="0.6731" style="stop-color:#FFB412"/>
		<stop  offset="0.8324" style="stop-color:#FFCA21"/>
		<stop  offset="0.9797" style="stop-color:#FFE634"/>
		<stop  offset="1" style="stop-color:#FFEA37"/>
	</linearGradient>
	<path style="display:inline;fill:url(#SVGID_00000016077301479530349380000016654982179372540088_);" d="M33.4,197.4
		c-30-39.7-33.5-107-8.5-152.3c0-0.1,0.1-0.1,0.1-0.2c0.3-0.5,0.5-1,0.8-1.5l0.1-0.1c0.3-0.6,0.7-1.2,1.1-1.8
		c0.4-0.6,0.7-1.2,1.1-1.8l0.1-0.1c0.3-0.5,0.6-0.9,0.9-1.4c0-0.1,0.1-0.1,0.1-0.1c0.3-0.5,0.6-0.9,0.9-1.3c0.1-0.2,0.3-0.4,0.4-0.6
		c0.2-0.3,0.5-0.7,0.7-1c0.4-0.6,0.8-1.1,1.3-1.6c0.1-0.1,0.1-0.2,0.2-0.3c0.3-0.4,0.7-0.8,1-1.2c0.1-0.2,0.3-0.4,0.5-0.5
		c0.3-0.3,0.5-0.6,0.8-0.9c0.2-0.2,0.4-0.4,0.6-0.7c0.4-0.4,0.8-0.9,1.2-1.3c0.8-0.8,1.6-1.5,2.4-2.3s1.6-1.4,2.4-2.1
		c0.6-0.5,1.2-0.9,1.8-1.4s1.2-0.9,1.8-1.3c0,0,0,0,0.1,0c0.4-0.3,0.8-0.6,1.3-0.8c0.5-0.3,1.1-0.7,1.6-1s1-0.5,1.5-0.8
		c0.6-0.3,1.2-0.6,1.8-0.9s1.1-0.5,1.7-0.7c0.9-0.4,1.7-0.7,2.6-1c1.8-0.7,3.7-1.2,5.6-1.5c0.9-0.2,1.8-0.3,2.7-0.4
		c0.5-0.1,0.9-0.1,1.4-0.2c0.5,0,0.9-0.1,1.4-0.1s0.9,0,1.4-0.1c0.4,0,0.8,0,1.2,0c0.5,0,1,0,1.6,0c0,0,0,0,0.1,0
		c0.9,0,1.8,0.1,2.8,0.2c0,0,0,0,0.1,0c0.6,0.1,1.2,0.1,1.8,0.2c0.8,0.1,1.6,0.3,2.4,0.4c0.4,0.1,0.7,0.2,1.1,0.2
		c1.7,0.4,3.4,0.9,5.1,1.5c0.7,0.3,1.5,0.6,2.2,0.9c0.8,0.3,1.6,0.7,2.4,1.1c0.6,0.3,1.2,0.6,1.8,0.9l0,0c0.6,0.3,1.3,0.7,1.9,1.1
		c0.1,0.1,0.2,0.1,0.3,0.2c0.6,0.4,1.3,0.8,1.9,1.2c0.5,0.3,0.9,0.6,1.4,0.9s1,0.7,1.5,1.1c0.4,0.3,0.8,0.6,1.1,0.8
		c0.4,0.3,0.9,0.7,1.3,1.1c0.3,0.2,0.6,0.5,0.9,0.8c0.5,0.4,1,0.9,1.5,1.3c0.1,0.1,0.1,0.1,0.2,0.1c0.6,0.5,1.1,1,1.6,1.6
		c0.2,0.1,0.3,0.3,0.5,0.5c0.6,0.5,1.1,1.1,1.7,1.7c0.2,0.2,0.3,0.4,0.5,0.6c0.4,0.5,0.9,0.9,1.3,1.4c0.2,0.2,0.4,0.5,0.7,0.8
		c0.5,0.6,1.1,1.2,1.6,1.9l0.1,0.2c0.6,0.8,1.3,1.6,1.9,2.4c3,4,5.8,8.4,8.2,12.9C95.8,29,63.7,33.6,44.7,65.1
		c-18.9,31.5-18.4,79.3-0.1,113.7c2.4,4.6,5.2,8.9,8.2,12.9c25.1,33.2,61.8,33.2,83.6,0.8C108.9,234.6,63.5,237.1,33.4,197.4z"/>
</g>
<linearGradient id="SVGID_00000034811027609514419990000005166637398272607635_" gradientUnits="userSpaceOnUse" x1="12.6761" y1="149.5463" x2="120.9561" y2="149.5463">
	<stop  offset="0" style="stop-color:#FF7D55"/>
	<stop  offset="1" style="stop-color:#FFCC00"/>
</linearGradient>
<path style="fill:url(#SVGID_00000034811027609514419990000005166637398272607635_);" d="M121,195.7l-21,13.9
	c-1.4,0.9-2.9,1.5-4.4,1.8c-1.2,0.3-2.5,0.3-3.7,0.2c-2.1-0.2-4.2-0.9-6.1-2.1l-19.8-13.1l-24.8-16.4l-22.7-15
	c-0.7-0.5-1.4-1-1.9-1.6c-2.4-2.4-3.9-5.7-3.9-9.2V87.4l19.4,19.4l2.3,2.3l3.7,3.7l5.3,5.3L73.2,148l15.9,15.9l2.4,2.4
	c0,0,0,0,0.1,0.1l0,0L121,195.7z"/>
<linearGradient id="SVGID_00000021121557936523713600000002482325264456784314_" gradientUnits="userSpaceOnUse" x1="86.9065" y1="87.3008" x2="18.9093" y2="48.0426">
	<stop  offset="0" style="stop-color:#FF7D55"/>
	<stop  offset="0.1639" style="stop-color:#FF9739"/>
	<stop  offset="0.3524" style="stop-color:#FFAE20"/>
	<stop  offset="0.5493" style="stop-color:#FFBF0E"/>
	<stop  offset="0.7584" style="stop-color:#FFC903"/>
	<stop  offset="1" style="stop-color:#FFCC00"/>
</linearGradient>
<path style="fill:url(#SVGID_00000021121557936523713600000002482325264456784314_);" d="M104.3,57.3C98,51,87.9,51,81.7,57.2
	c0,0,0,0,0,0L43.4,95.6c-0.1,0.1-0.1,0.1-0.2,0.2c-6.1,6.2-6,16.2,0.2,22.4l-5.3-5.3l-3.7-3.7l-2.3-2.3L12.7,87.4V62.3
	c0-4.2,2.1-8.1,5.5-10.6c0.1-0.1,0.2-0.1,0.3-0.2l24.4-16.1l23.8-15.7L104.3,57.3z"/>
<linearGradient id="SVGID_00000174593603261474417370000006038086210616476297_" gradientUnits="userSpaceOnUse" x1="66.6861" y1="65.4954" x2="173.0461" y2="65.4954">
	<stop  offset="0" style="stop-color:#FF7D55"/>
	<stop  offset="1" style="stop-color:#FFC500"/>
</linearGradient>
<path style="fill:url(#SVGID_00000174593603261474417370000006038086210616476297_);" d="M173,62.3V126l-20.5-20.5
	c0,0-0.1-0.1-0.1-0.1l-3.8-3.8l-5.3-5.3l-39.1-39.1L66.7,19.7l19-12.6c1.8-1.2,3.8-1.9,5.8-2.1L92,5h0.8c2.5,0,5,0.7,7.1,2.1
	l19.2,12.7l24.8,16.4l23.3,15.4c0.5,0.3,1,0.7,1.4,1.1C171.4,55,173,58.6,173,62.3z"/>
<linearGradient id="SVGID_00000109010193090091577450000009079878276344252045_" gradientUnits="userSpaceOnUse" x1="167.9169" y1="166.6712" x2="88.8086" y2="120.998">
	<stop  offset="0" style="stop-color:#FF7D55"/>
	<stop  offset="0.1297" style="stop-color:#FF9041"/>
	<stop  offset="0.3478" style="stop-color:#FFAA24"/>
	<stop  offset="0.5665" style="stop-color:#FFBD10"/>
	<stop  offset="0.7842" style="stop-color:#FFC804"/>
	<stop  offset="1" style="stop-color:#FFCC00"/>
</linearGradient>
<path style="fill:url(#SVGID_00000109010193090091577450000009079878276344252045_);" d="M173,126v28.3c0,3-1.1,5.9-3,8.2
	c-0.8,1-1.8,1.8-2.8,2.6l-21.5,14.2L121,195.7l-29.4-29.4l0,0c0,0,0,0-0.1-0.1l-2.4-2.4L73.2,148l9.3,9.3c6.2,6.2,16.3,6.2,22.6,0
	l38.3-38.3c6.2-6.2,6.2-16.3,0-22.6l5.3,5.3l3.8,3.8c0,0,0.1,0.1,0.1,0.1L173,126z"/>
<path class="st8" d="M143.4,119l-38.3,38.3c-6.2,6.2-16.3,6.2-22.6,0l-9.3-9.3l-29.8-29.9c-6.2-6.2-6.2-16.1-0.2-22.4
	c0-0.1,0.1-0.1,0.2-0.2l38.3-38.3c0,0,0,0,0,0c6.2-6.2,16.3-6.2,22.5,0l39.1,39.1C149.6,102.6,149.6,112.7,143.4,119z"/>
</svg>
